<?xml version="1.0" encoding="UTF-8"?>
<svg preserveAspectRatio="xMidYMid meet" xmlns="http://www.w3.org/2000/svg" xmlns:xlink="http://www.w3.org/1999/xlink" width="139" height="188" viewBox="0 -0.6 139 188.2" version="1.2"><g transform="translate(0,-302.45)">
<defs>
<clipPath id="clip1">
  <path d="M 0 302 L 139 302 L 139 490 L 0 490 Z M 0 302 "/>
</clipPath>
<clipPath id="clip2">
  <path d="M 41.21875 327.164062 L 41.21875 313.382812 L 108.273438 313.382812 L 108.273438 302.453125 L 30.289062 302.453125 L 30.289062 327.164062 L 0 327.164062 L 0 464.957031 L 97.40625 464.957031 L 97.40625 478.617188 L 30.289062 478.617188 L 30.289062 489.546875 L 108.273438 489.546875 L 108.273438 464.957031 L 138.566406 464.898438 L 138.566406 327.164062 Z M 10.929688 338.089844 L 30.289062 338.089844 L 30.289062 356.859375 L 10.929688 356.859375 Z M 97.40625 454.027344 L 10.929688 454.027344 L 10.929688 367.789062 L 30.289062 367.789062 L 30.289062 435.320312 L 97.347656 435.320312 Z M 97.347656 424.332031 L 41.21875 424.332031 L 41.21875 367.789062 L 97.40625 367.789062 Z M 127.695312 454.027344 L 108.273438 454.027344 L 108.273438 435.257812 L 127.695312 435.257812 Z M 127.695312 424.332031 L 108.273438 424.332031 L 108.273438 356.859375 L 41.21875 356.859375 L 41.21875 338.089844 L 127.695312 338.089844 Z M 127.695312 424.332031 "/>
</clipPath>
<linearGradient id="linear0" gradientUnits="userSpaceOnUse" x1="-16.195497" y1="16.115611" x2="249.545258" y2="300.837792" gradientTransform="matrix(0.593939,0,0,-0.593939,0.000001,490.139331)">
<stop offset="0" style="stop-color:rgb(28.509521%,14.697266%,5.000305%);stop-opacity:1;"/>
<stop offset="0.00390625" style="stop-color:rgb(28.874207%,14.839172%,4.974365%);stop-opacity:1;"/>
<stop offset="0.0078125" style="stop-color:rgb(29.240417%,14.981079%,4.949951%);stop-opacity:1;"/>
<stop offset="0.0117187" style="stop-color:rgb(29.605103%,15.12146%,4.924011%);stop-opacity:1;"/>
<stop offset="0.015625" style="stop-color:rgb(29.971313%,15.263367%,4.898071%);stop-opacity:1;"/>
<stop offset="0.0195312" style="stop-color:rgb(30.335999%,15.403748%,4.872131%);stop-opacity:1;"/>
<stop offset="0.0234375" style="stop-color:rgb(30.702209%,15.545654%,4.847717%);stop-opacity:1;"/>
<stop offset="0.0273438" style="stop-color:rgb(31.066895%,15.686035%,4.821777%);stop-opacity:1;"/>
<stop offset="0.03125" style="stop-color:rgb(31.433105%,15.827942%,4.795837%);stop-opacity:1;"/>
<stop offset="0.0351562" style="stop-color:rgb(31.797791%,15.969849%,4.769897%);stop-opacity:1;"/>
<stop offset="0.0390625" style="stop-color:rgb(32.162476%,16.111755%,4.745483%);stop-opacity:1;"/>
<stop offset="0.0429688" style="stop-color:rgb(32.527161%,16.252136%,4.719543%);stop-opacity:1;"/>
<stop offset="0.046875" style="stop-color:rgb(32.893372%,16.394043%,4.693604%);stop-opacity:1;"/>
<stop offset="0.0507812" style="stop-color:rgb(33.258057%,16.534424%,4.667664%);stop-opacity:1;"/>
<stop offset="0.0546875" style="stop-color:rgb(33.624268%,16.676331%,4.64325%);stop-opacity:1;"/>
<stop offset="0.0585938" style="stop-color:rgb(33.988953%,16.816711%,4.61731%);stop-opacity:1;"/>
<stop offset="0.0625" style="stop-color:rgb(34.355164%,16.958618%,4.59137%);stop-opacity:1;"/>
<stop offset="0.0664063" style="stop-color:rgb(34.719849%,17.098999%,4.56543%);stop-opacity:1;"/>
<stop offset="0.0703125" style="stop-color:rgb(35.08606%,17.240906%,4.541016%);stop-opacity:1;"/>
<stop offset="0.0742188" style="stop-color:rgb(35.450745%,17.382812%,4.515076%);stop-opacity:1;"/>
<stop offset="0.078125" style="stop-color:rgb(35.816956%,17.524719%,4.489136%);stop-opacity:1;"/>
<stop offset="0.0820313" style="stop-color:rgb(36.181641%,17.6651%,4.463196%);stop-opacity:1;"/>
<stop offset="0.0859375" style="stop-color:rgb(36.546326%,17.807007%,4.438782%);stop-opacity:1;"/>
<stop offset="0.0898438" style="stop-color:rgb(36.911011%,17.947388%,4.412842%);stop-opacity:1;"/>
<stop offset="0.09375" style="stop-color:rgb(37.277222%,18.089294%,4.386902%);stop-opacity:1;"/>
<stop offset="0.0976563" style="stop-color:rgb(37.641907%,18.229675%,4.360962%);stop-opacity:1;"/>
<stop offset="0.101563" style="stop-color:rgb(38.008118%,18.371582%,4.336548%);stop-opacity:1;"/>
<stop offset="0.105469" style="stop-color:rgb(38.372803%,18.513489%,4.310608%);stop-opacity:1;"/>
<stop offset="0.109375" style="stop-color:rgb(38.739014%,18.655396%,4.284668%);stop-opacity:1;"/>
<stop offset="0.113281" style="stop-color:rgb(39.103699%,18.795776%,4.258728%);stop-opacity:1;"/>
<stop offset="0.117187" style="stop-color:rgb(39.46991%,18.937683%,4.234314%);stop-opacity:1;"/>
<stop offset="0.121094" style="stop-color:rgb(39.834595%,19.078064%,4.208374%);stop-opacity:1;"/>
<stop offset="0.125" style="stop-color:rgb(40.200806%,19.219971%,4.182434%);stop-opacity:1;"/>
<stop offset="0.128906" style="stop-color:rgb(40.565491%,19.360352%,4.156494%);stop-opacity:1;"/>
<stop offset="0.132813" style="stop-color:rgb(40.930176%,19.502258%,4.13208%);stop-opacity:1;"/>
<stop offset="0.136719" style="stop-color:rgb(41.294861%,19.642639%,4.10614%);stop-opacity:1;"/>
<stop offset="0.140625" style="stop-color:rgb(41.661072%,19.784546%,4.0802%);stop-opacity:1;"/>
<stop offset="0.144531" style="stop-color:rgb(42.025757%,19.926453%,4.05426%);stop-opacity:1;"/>
<stop offset="0.148438" style="stop-color:rgb(42.391968%,20.068359%,4.029846%);stop-opacity:1;"/>
<stop offset="0.152344" style="stop-color:rgb(42.756653%,20.20874%,4.003906%);stop-opacity:1;"/>
<stop offset="0.15625" style="stop-color:rgb(43.122864%,20.350647%,3.977966%);stop-opacity:1;"/>
<stop offset="0.160156" style="stop-color:rgb(43.487549%,20.491028%,3.952026%);stop-opacity:1;"/>
<stop offset="0.164062" style="stop-color:rgb(43.85376%,20.632935%,3.927612%);stop-opacity:1;"/>
<stop offset="0.167969" style="stop-color:rgb(44.218445%,20.773315%,3.901672%);stop-opacity:1;"/>
<stop offset="0.171875" style="stop-color:rgb(44.58313%,20.915222%,3.875732%);stop-opacity:1;"/>
<stop offset="0.175781" style="stop-color:rgb(44.947815%,21.057129%,3.849792%);stop-opacity:1;"/>
<stop offset="0.179688" style="stop-color:rgb(45.314026%,21.199036%,3.825378%);stop-opacity:1;"/>
<stop offset="0.183594" style="stop-color:rgb(45.678711%,21.339417%,3.799438%);stop-opacity:1;"/>
<stop offset="0.1875" style="stop-color:rgb(46.044922%,21.481323%,3.773499%);stop-opacity:1;"/>
<stop offset="0.191406" style="stop-color:rgb(46.409607%,21.621704%,3.747559%);stop-opacity:1;"/>
<stop offset="0.195312" style="stop-color:rgb(46.775818%,21.763611%,3.723145%);stop-opacity:1;"/>
<stop offset="0.199219" style="stop-color:rgb(47.140503%,21.903992%,3.697205%);stop-opacity:1;"/>
<stop offset="0.203125" style="stop-color:rgb(47.506714%,22.045898%,3.671265%);stop-opacity:1;"/>
<stop offset="0.207031" style="stop-color:rgb(47.871399%,22.186279%,3.645325%);stop-opacity:1;"/>
<stop offset="0.210938" style="stop-color:rgb(48.23761%,22.328186%,3.620911%);stop-opacity:1;"/>
<stop offset="0.214844" style="stop-color:rgb(48.602295%,22.470093%,3.594971%);stop-opacity:1;"/>
<stop offset="0.21875" style="stop-color:rgb(48.96698%,22.612%,3.569031%);stop-opacity:1;"/>
<stop offset="0.222656" style="stop-color:rgb(49.331665%,22.75238%,3.543091%);stop-opacity:1;"/>
<stop offset="0.226562" style="stop-color:rgb(49.697876%,22.894287%,3.518677%);stop-opacity:1;"/>
<stop offset="0.230469" style="stop-color:rgb(50.062561%,23.034668%,3.492737%);stop-opacity:1;"/>
<stop offset="0.234375" style="stop-color:rgb(50.428772%,23.176575%,3.466797%);stop-opacity:1;"/>
<stop offset="0.238281" style="stop-color:rgb(50.793457%,23.316956%,3.440857%);stop-opacity:1;"/>
<stop offset="0.242187" style="stop-color:rgb(51.159668%,23.458862%,3.416443%);stop-opacity:1;"/>
<stop offset="0.246094" style="stop-color:rgb(51.524353%,23.600769%,3.390503%);stop-opacity:1;"/>
<stop offset="0.25" style="stop-color:rgb(51.890564%,23.742676%,3.364563%);stop-opacity:1;"/>
<stop offset="0.253906" style="stop-color:rgb(52.255249%,23.883057%,3.338623%);stop-opacity:1;"/>
<stop offset="0.257813" style="stop-color:rgb(52.62146%,24.024963%,3.314209%);stop-opacity:1;"/>
<stop offset="0.261719" style="stop-color:rgb(52.986145%,24.165344%,3.288269%);stop-opacity:1;"/>
<stop offset="0.265625" style="stop-color:rgb(53.35083%,24.307251%,3.262329%);stop-opacity:1;"/>
<stop offset="0.269531" style="stop-color:rgb(53.715515%,24.447632%,3.236389%);stop-opacity:1;"/>
<stop offset="0.273438" style="stop-color:rgb(54.081726%,24.589539%,3.211975%);stop-opacity:1;"/>
<stop offset="0.277344" style="stop-color:rgb(54.446411%,24.729919%,3.186035%);stop-opacity:1;"/>
<stop offset="0.28125" style="stop-color:rgb(54.812622%,24.871826%,3.160095%);stop-opacity:1;"/>
<stop offset="0.285156" style="stop-color:rgb(55.177307%,25.013733%,3.134155%);stop-opacity:1;"/>
<stop offset="0.289062" style="stop-color:rgb(55.543518%,25.15564%,3.109741%);stop-opacity:1;"/>
<stop offset="0.292969" style="stop-color:rgb(55.908203%,25.296021%,3.083801%);stop-opacity:1;"/>
<stop offset="0.296875" style="stop-color:rgb(56.274414%,25.437927%,3.057861%);stop-opacity:1;"/>
<stop offset="0.300781" style="stop-color:rgb(56.639099%,25.578308%,3.031921%);stop-opacity:1;"/>
<stop offset="0.304688" style="stop-color:rgb(57.003784%,25.720215%,3.007507%);stop-opacity:1;"/>
<stop offset="0.308594" style="stop-color:rgb(57.368469%,25.860596%,2.981567%);stop-opacity:1;"/>
<stop offset="0.3125" style="stop-color:rgb(57.73468%,26.002502%,2.955627%);stop-opacity:1;"/>
<stop offset="0.316406" style="stop-color:rgb(58.099365%,26.144409%,2.929688%);stop-opacity:1;"/>
<stop offset="0.320312" style="stop-color:rgb(58.465576%,26.286316%,2.905273%);stop-opacity:1;"/>
<stop offset="0.324219" style="stop-color:rgb(58.830261%,26.426697%,2.879333%);stop-opacity:1;"/>
<stop offset="0.328125" style="stop-color:rgb(59.196472%,26.568604%,2.853394%);stop-opacity:1;"/>
<stop offset="0.332031" style="stop-color:rgb(59.561157%,26.708984%,2.827454%);stop-opacity:1;"/>
<stop offset="0.335938" style="stop-color:rgb(59.927368%,26.850891%,2.80304%);stop-opacity:1;"/>
<stop offset="0.339844" style="stop-color:rgb(60.292053%,26.991272%,2.7771%);stop-opacity:1;"/>
<stop offset="0.34375" style="stop-color:rgb(60.658264%,27.133179%,2.75116%);stop-opacity:1;"/>
<stop offset="0.347656" style="stop-color:rgb(61.022949%,27.27356%,2.72522%);stop-opacity:1;"/>
<stop offset="0.351562" style="stop-color:rgb(61.387634%,27.415466%,2.700806%);stop-opacity:1;"/>
<stop offset="0.355469" style="stop-color:rgb(61.752319%,27.557373%,2.674866%);stop-opacity:1;"/>
<stop offset="0.359375" style="stop-color:rgb(62.11853%,27.69928%,2.648926%);stop-opacity:1;"/>
<stop offset="0.363281" style="stop-color:rgb(62.483215%,27.839661%,2.622986%);stop-opacity:1;"/>
<stop offset="0.367188" style="stop-color:rgb(62.849426%,27.981567%,2.598572%);stop-opacity:1;"/>
<stop offset="0.371094" style="stop-color:rgb(63.214111%,28.121948%,2.572632%);stop-opacity:1;"/>
<stop offset="0.375" style="stop-color:rgb(63.580322%,28.263855%,2.546692%);stop-opacity:1;"/>
<stop offset="0.378906" style="stop-color:rgb(63.945007%,28.404236%,2.520752%);stop-opacity:1;"/>
<stop offset="0.382813" style="stop-color:rgb(64.311218%,28.546143%,2.496338%);stop-opacity:1;"/>
<stop offset="0.386719" style="stop-color:rgb(64.675903%,28.688049%,2.470398%);stop-opacity:1;"/>
<stop offset="0.390625" style="stop-color:rgb(65.042114%,28.829956%,2.444458%);stop-opacity:1;"/>
<stop offset="0.394531" style="stop-color:rgb(65.406799%,28.970337%,2.418518%);stop-opacity:1;"/>
<stop offset="0.398438" style="stop-color:rgb(65.771484%,29.112244%,2.394104%);stop-opacity:1;"/>
<stop offset="0.402344" style="stop-color:rgb(66.136169%,29.252625%,2.368164%);stop-opacity:1;"/>
<stop offset="0.40625" style="stop-color:rgb(66.50238%,29.394531%,2.342224%);stop-opacity:1;"/>
<stop offset="0.410156" style="stop-color:rgb(66.867065%,29.534912%,2.316284%);stop-opacity:1;"/>
<stop offset="0.414063" style="stop-color:rgb(67.233276%,29.676819%,2.29187%);stop-opacity:1;"/>
<stop offset="0.417969" style="stop-color:rgb(67.597961%,29.8172%,2.26593%);stop-opacity:1;"/>
<stop offset="0.421875" style="stop-color:rgb(67.964172%,29.959106%,2.23999%);stop-opacity:1;"/>
<stop offset="0.425781" style="stop-color:rgb(68.328857%,30.101013%,2.21405%);stop-opacity:1;"/>
<stop offset="0.429688" style="stop-color:rgb(68.695068%,30.24292%,2.189636%);stop-opacity:1;"/>
<stop offset="0.433594" style="stop-color:rgb(69.059753%,30.383301%,2.163696%);stop-opacity:1;"/>
<stop offset="0.4375" style="stop-color:rgb(69.424438%,30.525208%,2.137756%);stop-opacity:1;"/>
<stop offset="0.441406" style="stop-color:rgb(69.789124%,30.665588%,2.111816%);stop-opacity:1;"/>
<stop offset="0.445312" style="stop-color:rgb(70.155334%,30.807495%,2.087402%);stop-opacity:1;"/>
<stop offset="0.449219" style="stop-color:rgb(70.52002%,30.947876%,2.061462%);stop-opacity:1;"/>
<stop offset="0.453125" style="stop-color:rgb(70.88623%,31.089783%,2.035522%);stop-opacity:1;"/>
<stop offset="0.457031" style="stop-color:rgb(71.250916%,31.231689%,2.009583%);stop-opacity:1;"/>
<stop offset="0.460938" style="stop-color:rgb(71.617126%,31.373596%,1.985168%);stop-opacity:1;"/>
<stop offset="0.464844" style="stop-color:rgb(71.981812%,31.513977%,1.959229%);stop-opacity:1;"/>
<stop offset="0.46875" style="stop-color:rgb(72.348022%,31.655884%,1.933289%);stop-opacity:1;"/>
<stop offset="0.472656" style="stop-color:rgb(72.712708%,31.796265%,1.907349%);stop-opacity:1;"/>
<stop offset="0.476562" style="stop-color:rgb(73.078918%,31.938171%,1.882935%);stop-opacity:1;"/>
<stop offset="0.480469" style="stop-color:rgb(73.443604%,32.078552%,1.856995%);stop-opacity:1;"/>
<stop offset="0.484375" style="stop-color:rgb(73.808289%,32.220459%,1.831055%);stop-opacity:1;"/>
<stop offset="0.488281" style="stop-color:rgb(74.172974%,32.362366%,1.805115%);stop-opacity:1;"/>
<stop offset="0.492188" style="stop-color:rgb(74.539185%,32.504272%,1.780701%);stop-opacity:1;"/>
<stop offset="0.496094" style="stop-color:rgb(74.90387%,32.644653%,1.754761%);stop-opacity:1;"/>
<stop offset="0.5" style="stop-color:rgb(75.270081%,32.78656%,1.728821%);stop-opacity:1;"/>
<stop offset="0.503906" style="stop-color:rgb(75.634766%,32.926941%,1.702881%);stop-opacity:1;"/>
<stop offset="0.507812" style="stop-color:rgb(76.000977%,33.068848%,1.678467%);stop-opacity:1;"/>
<stop offset="0.511719" style="stop-color:rgb(76.365662%,33.209229%,1.652527%);stop-opacity:1;"/>
<stop offset="0.515625" style="stop-color:rgb(76.731873%,33.351135%,1.626587%);stop-opacity:1;"/>
<stop offset="0.519531" style="stop-color:rgb(77.096558%,33.491516%,1.600647%);stop-opacity:1;"/>
<stop offset="0.523438" style="stop-color:rgb(77.461243%,33.633423%,1.576233%);stop-opacity:1;"/>
<stop offset="0.527344" style="stop-color:rgb(77.825928%,33.77533%,1.550293%);stop-opacity:1;"/>
<stop offset="0.53125" style="stop-color:rgb(78.192139%,33.917236%,1.524353%);stop-opacity:1;"/>
<stop offset="0.535156" style="stop-color:rgb(78.556824%,34.057617%,1.498413%);stop-opacity:1;"/>
<stop offset="0.539063" style="stop-color:rgb(78.923035%,34.199524%,1.473999%);stop-opacity:1;"/>
<stop offset="0.542969" style="stop-color:rgb(79.28772%,34.339905%,1.448059%);stop-opacity:1;"/>
<stop offset="0.546875" style="stop-color:rgb(79.653931%,34.481812%,1.422119%);stop-opacity:1;"/>
<stop offset="0.550781" style="stop-color:rgb(80.018616%,34.622192%,1.396179%);stop-opacity:1;"/>
<stop offset="0.554688" style="stop-color:rgb(80.384827%,34.764099%,1.371765%);stop-opacity:1;"/>
<stop offset="0.558594" style="stop-color:rgb(80.749512%,34.906006%,1.345825%);stop-opacity:1;"/>
<stop offset="0.5625" style="stop-color:rgb(81.115723%,35.047913%,1.319885%);stop-opacity:1;"/>
<stop offset="0.566406" style="stop-color:rgb(81.480408%,35.188293%,1.293945%);stop-opacity:1;"/>
<stop offset="0.570313" style="stop-color:rgb(81.845093%,35.3302%,1.269531%);stop-opacity:1;"/>
<stop offset="0.574219" style="stop-color:rgb(82.209778%,35.470581%,1.243591%);stop-opacity:1;"/>
<stop offset="0.578125" style="stop-color:rgb(82.575989%,35.612488%,1.217651%);stop-opacity:1;"/>
<stop offset="0.582031" style="stop-color:rgb(82.940674%,35.752869%,1.191711%);stop-opacity:1;"/>
<stop offset="0.585938" style="stop-color:rgb(83.306885%,35.894775%,1.167297%);stop-opacity:1;"/>
<stop offset="0.589844" style="stop-color:rgb(83.67157%,36.035156%,1.141357%);stop-opacity:1;"/>
<stop offset="0.59375" style="stop-color:rgb(84.037781%,36.177063%,1.115417%);stop-opacity:1;"/>
<stop offset="0.597656" style="stop-color:rgb(84.402466%,36.31897%,1.089478%);stop-opacity:1;"/>
<stop offset="0.601562" style="stop-color:rgb(84.768677%,36.460876%,1.065063%);stop-opacity:1;"/>
<stop offset="0.605469" style="stop-color:rgb(85.133362%,36.601257%,1.039124%);stop-opacity:1;"/>
<stop offset="0.609375" style="stop-color:rgb(85.499573%,36.743164%,1.013184%);stop-opacity:1;"/>
<stop offset="0.613281" style="stop-color:rgb(85.864258%,36.883545%,0.987244%);stop-opacity:1;"/>
<stop offset="0.617188" style="stop-color:rgb(86.228943%,37.025452%,0.96283%);stop-opacity:1;"/>
<stop offset="0.621094" style="stop-color:rgb(86.593628%,37.165833%,0.93689%);stop-opacity:1;"/>
<stop offset="0.625" style="stop-color:rgb(86.959839%,37.307739%,0.91095%);stop-opacity:1;"/>
<stop offset="0.628906" style="stop-color:rgb(87.324524%,37.449646%,0.88501%);stop-opacity:1;"/>
<stop offset="0.632812" style="stop-color:rgb(87.690735%,37.591553%,0.860596%);stop-opacity:1;"/>
<stop offset="0.636719" style="stop-color:rgb(88.05542%,37.731934%,0.834656%);stop-opacity:1;"/>
<stop offset="0.640625" style="stop-color:rgb(88.421631%,37.87384%,0.808716%);stop-opacity:1;"/>
<stop offset="0.644531" style="stop-color:rgb(88.786316%,38.014221%,0.782776%);stop-opacity:1;"/>
<stop offset="0.648438" style="stop-color:rgb(89.152527%,38.156128%,0.758362%);stop-opacity:1;"/>
<stop offset="0.652344" style="stop-color:rgb(89.517212%,38.296509%,0.732422%);stop-opacity:1;"/>
<stop offset="0.65625" style="stop-color:rgb(89.881897%,38.438416%,0.706482%);stop-opacity:1;"/>
<stop offset="0.660156" style="stop-color:rgb(90.246582%,38.578796%,0.680542%);stop-opacity:1;"/>
<stop offset="0.664062" style="stop-color:rgb(90.612793%,38.720703%,0.656128%);stop-opacity:1;"/>
<stop offset="0.667969" style="stop-color:rgb(90.977478%,38.86261%,0.630188%);stop-opacity:1;"/>
<stop offset="0.671875" style="stop-color:rgb(91.343689%,39.004517%,0.604248%);stop-opacity:1;"/>
<stop offset="0.675781" style="stop-color:rgb(91.708374%,39.144897%,0.578308%);stop-opacity:1;"/>
<stop offset="0.679688" style="stop-color:rgb(92.074585%,39.286804%,0.553894%);stop-opacity:1;"/>
<stop offset="0.683594" style="stop-color:rgb(92.43927%,39.427185%,0.527954%);stop-opacity:1;"/>
<stop offset="0.6875" style="stop-color:rgb(92.805481%,39.569092%,0.502014%);stop-opacity:1;"/>
<stop offset="0.691406" style="stop-color:rgb(93.170166%,39.709473%,0.476074%);stop-opacity:1;"/>
<stop offset="0.695312" style="stop-color:rgb(93.536377%,39.851379%,0.45166%);stop-opacity:1;"/>
<stop offset="0.699219" style="stop-color:rgb(93.901062%,39.993286%,0.42572%);stop-opacity:1;"/>
<stop offset="0.703125" style="stop-color:rgb(94.265747%,40.135193%,0.39978%);stop-opacity:1;"/>
<stop offset="0.707031" style="stop-color:rgb(94.630432%,40.275574%,0.37384%);stop-opacity:1;"/>
<stop offset="0.710938" style="stop-color:rgb(94.996643%,40.41748%,0.349426%);stop-opacity:1;"/>
<stop offset="0.714844" style="stop-color:rgb(95.361328%,40.557861%,0.323486%);stop-opacity:1;"/>
<stop offset="0.71875" style="stop-color:rgb(95.727539%,40.699768%,0.297546%);stop-opacity:1;"/>
<stop offset="0.722656" style="stop-color:rgb(96.092224%,40.840149%,0.271606%);stop-opacity:1;"/>
<stop offset="0.726562" style="stop-color:rgb(96.458435%,40.982056%,0.247192%);stop-opacity:1;"/>
<stop offset="0.730469" style="stop-color:rgb(96.82312%,41.122437%,0.221252%);stop-opacity:1;"/>
<stop offset="0.734375" style="stop-color:rgb(97.189331%,41.264343%,0.195312%);stop-opacity:1;"/>
<stop offset="0.738281" style="stop-color:rgb(97.554016%,41.40625%,0.169373%);stop-opacity:1;"/>
<stop offset="0.742188" style="stop-color:rgb(97.920227%,41.548157%,0.144958%);stop-opacity:1;"/>
<stop offset="0.746094" style="stop-color:rgb(98.284912%,41.688538%,0.119019%);stop-opacity:1;"/>
<stop offset="0.75" style="stop-color:rgb(98.649597%,41.830444%,0.0930786%);stop-opacity:1;"/>
<stop offset="0.753906" style="stop-color:rgb(99.014282%,41.970825%,0.0671387%);stop-opacity:1;"/>
<stop offset="0.757812" style="stop-color:rgb(99.380493%,42.112732%,0.0427246%);stop-opacity:1;"/>
<stop offset="0.761719" style="stop-color:rgb(99.690247%,42.23175%,0.0213623%);stop-opacity:1;"/>
<stop offset="0.765625" style="stop-color:rgb(100%,42.352295%,0%);stop-opacity:1;"/>
<stop offset="0.78125" style="stop-color:rgb(100%,42.352295%,0%);stop-opacity:1;"/>
<stop offset="0.8125" style="stop-color:rgb(100%,42.352295%,0%);stop-opacity:1;"/>
<stop offset="0.875" style="stop-color:rgb(100%,42.352295%,0%);stop-opacity:1;"/>
<stop offset="1" style="stop-color:rgb(100%,42.352295%,0%);stop-opacity:1;"/>
</linearGradient>
</defs>
<g id="surface1">
<g clip-path="url(#clip1)" clip-rule="nonzero">
<g clip-path="url(#clip2)" clip-rule="nonzero">
<path style=" stroke:none;fill-rule:nonzero;fill:url(#linear0);" d="M 0 489.546875 L 0 302.453125 L 138.566406 302.453125 L 138.566406 489.546875 Z M 0 489.546875 "/>
</g>
</g>
<path style=" stroke:none;fill-rule:nonzero;fill:rgb(0%,0%,0%);fill-opacity:0.4;" d="M 30.289062 367.789062 L 41.21875 367.789062 L 41.21875 374.441406 L 30.289062 374.441406 Z M 30.289062 367.789062 "/>
<path style=" stroke:none;fill-rule:nonzero;fill:rgb(0%,0%,0%);fill-opacity:0.4;" d="M 97.347656 464.957031 L 108.273438 464.957031 L 108.273438 471.609375 L 97.347656 471.609375 Z M 97.347656 464.957031 "/>
<path style=" stroke:none;fill-rule:nonzero;fill:rgb(0%,0%,0%);fill-opacity:0.4;" d="M 90.753906 424.390625 L 97.40625 424.390625 L 97.40625 435.320312 L 90.753906 435.320312 Z M 90.753906 424.390625 "/>
<path style=" stroke:none;fill-rule:nonzero;fill:rgb(0%,0%,0%);fill-opacity:0.4;" d="M 30.289062 338.089844 L 41.21875 338.089844 L 41.21875 344.742188 L 30.289062 344.742188 Z M 30.289062 338.089844 "/>
<path style=" stroke:none;fill-rule:nonzero;fill:rgb(0%,0%,0%);fill-opacity:1;" d="M 249.382812 404.984375 L 163.886719 404.984375 L 163.886719 319.316406 L 182.273438 319.316406 L 182.273438 386.484375 L 249.382812 386.484375 Z M 346.890625 404.984375 L 279.085938 404.984375 L 279.085938 319.433594 L 346.890625 319.433594 C 351.800781 319.433594 355.976562 321.164062 359.417969 324.621094 C 362.859375 328.082031 364.582031 332.234375 364.582031 337.070312 L 364.582031 387.410156 C 364.582031 392.242188 362.859375 396.378906 359.417969 399.820312 C 355.976562 403.261719 351.800781 404.984375 346.890625 404.984375 Z M 297.464844 337.996094 L 297.464844 386.484375 L 345.964844 386.484375 L 345.964844 337.996094 Z M 419.105469 404.984375 L 400.71875 404.984375 L 400.71875 337.070312 C 400.71875 332.152344 402.417969 327.984375 405.824219 324.566406 C 409.230469 321.144531 413.386719 319.433594 418.296875 319.433594 L 468.519531 319.433594 C 473.4375 319.433594 477.613281 321.164062 481.058594 324.621094 C 484.496094 328.082031 486.210938 332.234375 486.210938 337.070312 L 486.210938 404.984375 L 467.59375 404.984375 L 467.59375 377.433594 L 419.105469 377.433594 Z M 419.105469 337.996094 L 419.105469 358.871094 L 467.59375 358.871094 L 467.59375 337.996094 Z M 540.625 404.984375 L 522.246094 404.984375 L 522.246094 319.550781 L 590.050781 319.550781 C 594.878906 319.550781 599.035156 321.28125 602.515625 324.738281 C 605.992188 328.203125 607.734375 332.351562 607.734375 337.179688 L 607.734375 359.28125 C 607.734375 364.113281 605.992188 368.25 602.515625 371.691406 C 599.035156 375.132812 594.878906 376.855469 590.050781 376.855469 L 589.234375 376.855469 L 607.734375 398.664062 L 607.734375 404.984375 L 588.765625 404.984375 L 565.105469 376.855469 L 540.625 376.972656 C 540.859375 376.972656 540.972656 377.203125 540.972656 377.664062 C 540.820312 377.664062 540.703125 377.625 540.625 377.550781 Z M 540.625 337.996094 L 540.625 358.292969 L 589.113281 358.292969 L 589.113281 337.996094 Z M 540.625 337.996094 "/>
<path style=" stroke:none;fill-rule:nonzero;fill:rgb(0%,0%,0%);fill-opacity:1;" d="M 177.933594 467.765625 C 175.769531 467.765625 173.582031 467.695312 171.375 467.550781 C 169.167969 467.414062 167.238281 467.128906 165.578125 466.695312 L 165.578125 426.925781 C 166.449219 426.765625 167.378906 426.621094 168.359375 426.480469 C 169.347656 426.34375 170.351562 426.238281 171.375 426.15625 C 172.402344 426.078125 173.414062 426.019531 174.417969 425.984375 C 175.421875 425.941406 176.375 425.921875 177.285156 425.921875 C 179.765625 425.921875 182.070312 426.109375 184.199219 426.480469 C 186.324219 426.855469 188.167969 427.476562 189.726562 428.34375 C 191.28125 429.210938 192.496094 430.351562 193.359375 431.773438 C 194.226562 433.191406 194.660156 434.945312 194.660156 437.03125 C 194.660156 438.964844 194.195312 440.617188 193.273438 441.996094 C 192.34375 443.375 191.054688 444.476562 189.402344 445.304688 C 191.882812 446.136719 193.714844 447.355469 194.898438 448.964844 C 196.078125 450.582031 196.671875 452.632812 196.671875 455.117188 C 196.671875 459.332031 195.132812 462.492188 192.0625 464.597656 C 188.984375 466.710938 184.273438 467.765625 177.933594 467.765625 Z M 179.46875 448.855469 L 172.914062 448.855469 L 172.914062 461.320312 C 173.738281 461.398438 174.625 461.457031 175.574219 461.5 C 176.519531 461.539062 177.382812 461.554688 178.171875 461.554688 C 179.707031 461.554688 181.136719 461.457031 182.457031 461.261719 C 183.777344 461.0625 184.917969 460.71875 185.882812 460.226562 C 186.851562 459.734375 187.617188 459.074219 188.1875 458.246094 C 188.757812 457.417969 189.042969 456.355469 189.042969 455.054688 C 189.042969 452.730469 188.195312 451.117188 186.503906 450.207031 C 184.808594 449.304688 182.464844 448.855469 179.46875 448.855469 Z M 172.914062 432.246094 L 172.914062 443 L 178.171875 443 C 181.007812 443 183.230469 442.597656 184.847656 441.789062 C 186.460938 440.980469 187.269531 439.53125 187.269531 437.441406 C 187.269531 435.472656 186.433594 434.074219 184.761719 433.246094 C 183.085938 432.421875 180.910156 432.011719 178.226562 432.011719 C 177.085938 432.011719 176.074219 432.027344 175.1875 432.066406 C 174.296875 432.109375 173.542969 432.167969 172.914062 432.246094 Z M 253.871094 468.175781 C 251.074219 468.175781 248.671875 467.773438 246.664062 466.964844 C 244.652344 466.15625 242.988281 465.023438 241.667969 463.566406 C 240.347656 462.109375 239.375 460.394531 238.746094 458.421875 C 238.113281 456.453125 237.792969 454.285156 237.792969 451.925781 L 237.792969 426.332031 L 245.300781 426.332031 L 245.300781 451.214844 C 245.300781 453.066406 245.511719 454.652344 245.929688 455.972656 C 246.339844 457.292969 246.929688 458.367188 247.695312 459.195312 C 248.464844 460.019531 249.371094 460.628906 250.417969 461.027344 C 251.457031 461.417969 252.628906 461.613281 253.933594 461.613281 C 255.234375 461.613281 256.414062 461.417969 257.472656 461.027344 C 258.539062 460.628906 259.457031 460.019531 260.222656 459.195312 C 260.992188 458.367188 261.585938 457.292969 261.996094 455.972656 C 262.414062 454.652344 262.621094 453.066406 262.621094 451.214844 L 262.621094 426.332031 L 270.121094 426.332031 L 270.121094 451.925781 C 270.121094 454.285156 269.796875 456.453125 269.148438 458.421875 C 268.496094 460.394531 267.511719 462.109375 266.191406 463.566406 C 264.875 465.023438 263.1875 466.15625 261.140625 466.964844 C 259.09375 467.773438 256.667969 468.175781 253.871094 468.175781 Z M 323.25 461.730469 C 325.933594 461.730469 327.882812 461.277344 329.101562 460.375 C 330.324219 459.46875 330.933594 458.1875 330.933594 456.535156 C 330.933594 455.546875 330.726562 454.699219 330.316406 453.992188 C 329.902344 453.28125 329.3125 452.640625 328.539062 452.070312 C 327.773438 451.5 326.839844 450.96875 325.738281 450.476562 C 324.632812 449.988281 323.371094 449.503906 321.953125 449.027344 C 320.53125 448.515625 319.160156 447.953125 317.84375 447.339844 C 316.523438 446.734375 315.359375 445.976562 314.359375 445.070312 C 313.355469 444.160156 312.546875 443.078125 311.933594 441.820312 C 311.320312 440.558594 311.015625 439.042969 311.015625 437.269531 C 311.015625 433.5625 312.296875 430.65625 314.863281 428.550781 C 317.425781 426.441406 320.910156 425.390625 325.316406 425.390625 C 327.878906 425.390625 330.152344 425.675781 332.144531 426.246094 C 334.132812 426.816406 335.703125 427.433594 336.847656 428.105469 L 334.542969 434.132812 C 333.203125 433.386719 331.734375 432.816406 330.140625 432.421875 C 328.539062 432.027344 326.894531 431.828125 325.199219 431.828125 C 323.191406 431.828125 321.628906 432.242188 320.503906 433.070312 C 319.382812 433.898438 318.824219 435.0625 318.824219 436.554688 C 318.824219 437.464844 319.007812 438.242188 319.378906 438.890625 C 319.753906 439.542969 320.285156 440.121094 320.976562 440.632812 C 321.664062 441.144531 322.472656 441.617188 323.402344 442.050781 C 324.324219 442.484375 325.339844 442.898438 326.441406 443.292969 C 328.375 444.003906 330.097656 444.71875 331.613281 445.449219 C 333.128906 446.183594 334.410156 447.050781 335.453125 448.054688 C 336.5 449.058594 337.296875 450.238281 337.847656 451.601562 C 338.398438 452.957031 338.675781 454.601562 338.675781 456.535156 C 338.675781 460.238281 337.367188 463.101562 334.75 465.128906 C 332.125 467.160156 328.292969 468.175781 323.25 468.175781 C 321.554688 468.175781 320.007812 468.070312 318.609375 467.851562 C 317.210938 467.636719 315.96875 467.367188 314.886719 467.050781 C 313.804688 466.734375 312.871094 466.410156 312.085938 466.078125 C 311.296875 465.742188 310.667969 465.433594 310.191406 465.160156 L 312.378906 459.078125 C 313.445312 459.667969 314.882812 460.257812 316.695312 460.84375 C 318.503906 461.433594 320.691406 461.730469 323.25 461.730469 Z M 374.78125 426.332031 L 407.464844 426.332031 L 407.464844 432.777344 L 394.878906 432.777344 L 394.878906 467.289062 L 387.371094 467.289062 L 387.371094 432.777344 L 374.78125 432.777344 Z M 474.539062 467.289062 L 446.820312 467.289062 L 446.820312 426.332031 L 473.121094 426.332031 L 473.121094 432.660156 L 454.265625 432.660156 L 454.265625 442.765625 L 471.054688 442.765625 L 471.054688 448.964844 L 454.265625 448.964844 L 454.265625 460.960938 L 474.539062 460.960938 Z M 526.425781 425.921875 C 532.332031 425.921875 536.855469 427.003906 539.992188 429.175781 C 543.121094 431.339844 544.6875 434.648438 544.6875 439.097656 C 544.6875 444.652344 541.949219 448.414062 536.476562 450.390625 C 537.21875 451.292969 538.066406 452.394531 539.015625 453.691406 C 539.960938 454.996094 540.925781 456.40625 541.90625 457.921875 C 542.894531 459.4375 543.839844 460.996094 544.742188 462.59375 C 545.652344 464.1875 546.457031 465.753906 547.164062 467.289062 L 538.835938 467.289062 C 538.085938 465.871094 537.277344 464.441406 536.410156 463.003906 C 535.546875 461.5625 534.667969 460.164062 533.78125 458.808594 C 532.894531 457.453125 532.019531 456.171875 531.152344 454.96875 C 530.289062 453.765625 529.480469 452.691406 528.730469 451.746094 C 528.179688 451.785156 527.707031 451.808594 527.3125 451.808594 C 526.917969 451.808594 526.542969 451.808594 526.1875 451.808594 L 522.585938 451.808594 L 522.585938 467.289062 L 515.140625 467.289062 L 515.140625 426.925781 C 516.953125 426.53125 518.882812 426.261719 520.929688 426.125 C 522.976562 425.988281 524.808594 425.921875 526.425781 425.921875 Z M 526.957031 432.367188 C 525.382812 432.367188 523.925781 432.425781 522.585938 432.539062 L 522.585938 445.78125 L 525.832031 445.78125 C 527.648438 445.78125 529.246094 445.679688 530.621094 445.480469 C 532 445.285156 533.152344 444.929688 534.074219 444.417969 C 535.003906 443.90625 535.703125 443.21875 536.175781 442.351562 C 536.648438 441.488281 536.886719 440.382812 536.886719 439.042969 C 536.886719 437.78125 536.648438 436.714844 536.175781 435.851562 C 535.703125 434.984375 535.027344 434.296875 534.140625 433.785156 C 533.25 433.273438 532.199219 432.90625 530.980469 432.691406 C 529.753906 432.472656 528.414062 432.367188 526.957031 432.367188 Z M 596.574219 461.730469 C 599.25 461.730469 601.203125 461.277344 602.425781 460.375 C 603.644531 459.46875 604.253906 458.1875 604.253906 456.535156 C 604.253906 455.546875 604.050781 454.699219 603.636719 453.992188 C 603.21875 453.28125 602.628906 452.640625 601.863281 452.070312 C 601.09375 451.5 600.15625 450.96875 599.050781 450.476562 C 597.949219 449.988281 596.691406 449.503906 595.273438 449.027344 C 593.855469 448.515625 592.484375 447.953125 591.164062 447.339844 C 589.84375 446.734375 588.683594 445.976562 587.679688 445.070312 C 586.675781 444.160156 585.871094 443.078125 585.257812 441.820312 C 584.644531 440.558594 584.339844 439.042969 584.339844 437.269531 C 584.339844 433.5625 585.617188 430.65625 588.179688 428.550781 C 590.738281 426.441406 594.226562 425.390625 598.640625 425.390625 C 601.203125 425.390625 603.476562 425.675781 605.46875 426.246094 C 607.457031 426.816406 609.023438 427.433594 610.164062 428.105469 L 607.859375 434.132812 C 606.523438 433.386719 605.054688 432.816406 603.457031 432.421875 C 601.859375 432.027344 600.214844 431.828125 598.523438 431.828125 C 596.515625 431.828125 594.949219 432.242188 593.824219 433.070312 C 592.703125 433.898438 592.140625 435.0625 592.140625 436.554688 C 592.140625 437.464844 592.328125 438.242188 592.703125 438.890625 C 593.074219 439.542969 593.609375 440.121094 594.300781 440.632812 C 594.988281 441.144531 595.796875 441.617188 596.722656 442.050781 C 597.648438 442.484375 598.660156 442.898438 599.765625 443.292969 C 601.699219 444.003906 603.421875 444.71875 604.9375 445.449219 C 606.453125 446.183594 607.730469 447.050781 608.777344 448.054688 C 609.824219 449.058594 610.621094 450.238281 611.167969 451.601562 C 611.722656 452.957031 612 454.601562 612 456.535156 C 612 460.238281 610.6875 463.101562 608.066406 465.128906 C 605.445312 467.160156 601.617188 468.175781 596.574219 468.175781 C 594.878906 468.175781 593.332031 468.070312 591.933594 467.851562 C 590.535156 467.636719 589.292969 467.367188 588.210938 467.050781 C 587.128906 466.734375 586.195312 466.410156 585.40625 466.078125 C 584.617188 465.742188 583.984375 465.433594 583.515625 465.160156 L 585.699219 459.078125 C 586.761719 459.667969 588.199219 460.257812 590.015625 460.84375 C 591.828125 461.433594 594.011719 461.730469 596.574219 461.730469 Z M 596.574219 461.730469 "/>
</g>
</g></svg>
